<svg version="1.1" id="Layer_1" xmlns="http://www.w3.org/2000/svg" xmlns:xlink="http://www.w3.org/1999/xlink" x="0px" y="0px"
	 width="100%" viewBox="0 0 1024 1024" enable-background="new 0 0 1024 1024" xml:space="preserve">
<path fill="#050608" opacity="1.000000" stroke="none" 
	d="
M600.000000,1025.000000 
	C400.000000,1025.000000 200.500000,1025.000000 1.000000,1025.000000 
	C1.000000,683.666687 1.000000,342.333344 1.000000,1.000000 
	C342.333344,1.000000 683.666687,1.000000 1025.000000,1.000000 
	C1025.000000,342.333344 1025.000000,683.666687 1025.000000,1025.000000 
	C883.500000,1025.000000 742.000000,1025.000000 600.000000,1025.000000 
M446.069824,509.612549 
	C412.966370,506.460724 380.253143,500.722198 349.222534,488.768280 
	C318.672333,476.999481 287.770813,476.500275 256.319061,481.576843 
	C220.680084,487.329224 187.641708,500.206024 157.480194,520.126099 
	C149.307556,525.523743 141.573212,531.584961 133.637711,537.341614 
	C133.888382,537.717896 134.139038,538.094177 134.389709,538.470398 
	C163.813889,526.250916 193.866318,516.049683 225.239059,510.147552 
	C255.079102,504.533813 285.111450,502.496216 315.153564,507.771362 
	C333.327423,510.962555 351.195923,515.852600 369.294678,519.520203 
	C403.621185,526.476196 438.273804,530.897095 473.331207,531.706665 
	C512.628296,532.614136 551.516479,528.863403 589.939270,520.723938 
	C625.070740,513.281677 659.029541,502.141602 691.592163,486.903107 
	C693.356934,486.077240 694.946411,484.876740 696.617432,483.850586 
	C694.347046,483.217102 692.567627,483.506714 690.839050,483.981354 
	C682.494873,486.272461 674.213684,488.810913 665.820618,490.902252 
	C630.563354,499.687256 594.942078,506.264771 558.695374,509.574066 
	C521.426636,512.976624 484.216644,513.348755 446.069824,509.612549 
M846.363342,461.764832 
	C835.427002,458.989777 824.001709,457.410126 813.660400,453.180359 
	C794.605469,445.386627 776.319885,435.736237 757.473022,427.404022 
	C728.658752,414.665192 698.827637,404.975098 667.957336,398.440430 
	C634.992981,391.462494 601.783020,388.991516 568.179443,391.598480 
	C539.840271,393.797028 512.233887,399.604645 485.166412,408.128998 
	C448.909210,419.547546 414.986481,435.983917 382.758942,456.016632 
	C377.461823,459.309357 372.365723,462.925507 367.176727,466.392181 
	C371.687683,465.912231 375.571716,464.446228 379.469666,463.018127 
	C418.464478,448.731232 458.375061,437.872101 499.290955,430.658417 
	C523.771240,426.342407 548.437073,423.687958 573.249084,423.640198 
	C589.855469,423.608215 606.536438,424.725281 623.058472,426.498108 
	C654.328064,429.853455 684.652405,437.680054 713.639465,449.802979 
	C735.880493,459.104614 757.619080,469.632660 779.415039,479.965729 
	C797.910645,488.734192 817.004761,494.276764 837.694946,493.301697 
	C843.515015,493.027405 849.372620,493.002136 855.189331,493.310394 
	C870.826782,494.139160 882.765442,500.644470 888.144165,516.195862 
	C889.764954,520.882141 891.046265,525.790771 891.649231,530.699951 
	C892.574219,538.231812 892.777222,545.852234 893.288635,553.465027 
	C893.691467,553.342651 894.090088,553.337524 894.295593,553.135742 
	C894.762878,552.677124 895.181824,552.152039 895.539612,551.601440 
	C913.650635,523.727173 920.274719,494.411224 906.775696,462.535492 
	C904.116333,456.255768 904.172424,456.196899 897.655457,458.046753 
	C881.112366,462.742554 864.331970,464.276306 846.363342,461.764832 
M330.580688,569.984619 
	C332.245880,569.988037 333.911163,569.982178 335.576263,569.996277 
	C344.101257,570.068542 346.170898,572.117371 346.205933,580.596191 
	C346.232544,587.028809 346.211212,593.461548 346.211212,600.043396 
	C348.714294,600.043396 350.801453,600.043396 353.126160,600.043396 
	C353.126160,591.850037 353.354309,583.883423 353.050415,575.937134 
	C352.827118,570.098328 348.993378,565.140625 342.963593,564.552551 
	C333.093079,563.589661 322.730591,561.073059 314.272064,568.129333 
	C311.599121,566.733032 309.319366,564.597534 306.933014,564.471008 
	C299.501709,564.076782 291.978424,563.936707 284.591583,564.688232 
	C279.418884,565.214539 275.555969,569.038635 275.223114,574.349670 
	C274.686951,582.904358 275.079132,591.517212 275.079132,599.962036 
	C277.449524,599.962036 279.557800,599.962036 281.798065,599.962036 
	C281.798065,592.490356 281.688904,585.333313 281.833679,578.181396 
	C281.943604,572.751160 284.386932,570.325928 289.827423,570.092224 
	C293.816437,569.920776 297.824432,569.905334 301.813019,570.076172 
	C307.840698,570.334351 310.195984,572.754395 310.285309,578.761169 
	C310.388947,585.731140 310.309448,592.703796 310.309448,599.905823 
	C312.772675,599.905823 314.978699,599.905823 317.391571,599.905823 
	C317.391571,593.726685 317.369690,587.909119 317.396362,582.091797 
	C317.443939,571.719910 319.149139,570.048462 330.580688,569.984619 
M368.343811,587.031311 
	C368.835999,586.342651 369.241730,585.164612 369.836975,585.059448 
	C371.453552,584.773987 373.150452,584.933716 374.815491,584.933350 
	C387.092621,584.930603 399.369751,584.931885 411.722137,584.931885 
	C411.722137,582.638245 411.722137,580.929443 411.722137,578.801758 
	C397.172180,578.801758 382.930634,578.801758 368.672791,578.801758 
	C369.079803,572.287170 371.207520,570.078430 377.243530,570.035522 
	C389.505798,569.948303 401.769073,570.009399 414.178345,570.009399 
	C414.178345,567.727173 414.178345,565.980225 414.178345,564.017761 
	C400.590454,564.017761 387.287628,563.794312 373.997406,564.106079 
	C366.653564,564.278381 362.307343,568.651733 361.606628,575.954468 
	C361.211884,580.068542 361.230408,584.289856 361.661835,588.400024 
	C362.329376,594.759827 366.654877,599.644653 372.908997,599.849121 
	C386.664612,600.298950 400.445099,599.988770 414.218750,599.988770 
	C414.218750,597.961487 414.218750,596.201355 414.218750,594.078186 
	C401.796173,594.078186 389.673340,594.070923 377.550537,594.082031 
	C373.132660,594.086060 369.705017,592.686646 368.343811,587.031311 
M558.751038,579.128540 
	C544.502197,579.128540 530.253418,579.128540 515.993958,579.128540 
	C516.155640,572.452332 518.289734,570.095337 523.979675,570.026733 
	C532.641541,569.922302 541.305603,569.999451 549.968689,569.999451 
	C553.892761,569.999451 557.816895,569.999390 561.648560,569.999390 
	C561.648560,567.637024 561.648560,566.026550 561.648560,564.096069 
	C547.799622,564.096069 534.171753,563.807678 520.564880,564.217224 
	C513.726318,564.422974 509.415833,569.407471 508.904449,576.316772 
	C508.646942,579.796021 508.679230,583.312805 508.824188,586.802490 
	C509.161346,594.921570 513.816956,599.712646 521.992065,600.122314 
	C527.477051,600.397217 532.983887,600.250916 538.481079,600.262390 
	C546.229370,600.278564 553.977661,600.266418 562.011780,600.266418 
	C561.880554,597.839905 561.786926,596.107483 561.679077,594.112915 
	C559.436462,594.112915 557.623657,594.113220 555.810791,594.112793 
	C545.315125,594.110168 534.818420,594.198547 524.324280,594.070801 
	C517.983704,593.993652 515.690308,591.290039 516.358398,584.726562 
	C530.538879,584.726562 544.772034,584.726562 559.232605,584.726562 
	C559.232605,582.790283 559.232605,581.313293 558.751038,579.128540 
M901.465820,569.995117 
	C904.936768,569.995117 908.407654,569.995117 912.006592,569.995117 
	C912.006592,567.806152 912.006592,565.950256 912.006592,563.959534 
	C898.630127,563.959534 885.637939,563.868591 872.648010,564.001221 
	C866.884216,564.060120 863.121582,566.789368 861.858093,571.194275 
	C859.643616,578.914734 864.119446,584.622986 873.020264,584.855408 
	C882.677734,585.107544 892.346252,584.927307 902.009949,584.949707 
	C905.272888,584.957275 908.203918,585.550842 908.104004,589.730286 
	C908.011292,593.608154 905.256470,594.106384 902.166687,594.099854 
	C890.670105,594.075378 879.173462,594.078552 867.676880,594.071655 
	C865.913391,594.070618 864.149902,594.071533 862.489258,594.071533 
	C862.489258,596.526672 862.489258,598.271912 862.489258,600.103577 
	C876.936707,600.103577 891.088257,600.315735 905.228638,600.010620 
	C911.920776,599.866272 915.273438,595.793335 915.157349,589.402161 
	C915.041870,583.040100 911.030090,579.228760 903.618286,579.062134 
	C894.125732,578.848633 884.625183,578.992981 875.128113,578.973755 
	C871.790955,578.967041 868.274475,578.667480 868.413757,574.281311 
	C868.538513,570.353943 871.717102,569.900696 874.985413,569.931396 
	C883.482239,570.011292 891.980164,569.981567 901.465820,569.995117 
M188.499420,587.228760 
	C192.159729,587.228455 195.820038,587.229126 199.480347,587.227539 
	C211.656418,587.222168 211.655731,587.221924 212.555389,599.319214 
	C212.565628,599.456970 212.705780,599.585083 212.901108,599.910767 
	C215.016113,599.910767 217.244308,599.910767 219.600266,599.910767 
	C219.515121,594.060730 220.650482,588.238037 214.893494,584.445312 
	C219.660980,580.922424 220.775116,576.563293 219.149323,571.418457 
	C217.574600,566.435120 213.570236,564.219238 208.878479,564.129578 
	C194.607178,563.857117 180.327393,564.030884 165.998093,564.030884 
	C165.998093,576.230103 165.998093,588.128235 165.998093,599.908813 
	C168.421127,599.908813 170.518829,599.908813 173.073395,599.908813 
	C173.073395,595.528625 173.073395,591.472107 173.073395,587.229187 
	C178.188934,587.229187 182.843872,587.229187 188.499420,587.228760 
M798.668640,578.027771 
	C798.644958,579.689026 798.595764,581.350342 798.601685,583.011536 
	C798.645020,595.143860 803.661011,600.201233 815.880859,600.330933 
	C821.861816,600.394409 827.844299,600.325684 833.826050,600.308533 
	C850.540466,600.260742 854.785828,595.873413 854.236023,579.225525 
	C853.925049,569.807190 848.817993,564.324341 839.386841,564.007568 
	C830.591003,563.712158 821.770630,563.738586 812.973389,564.014648 
	C804.826660,564.270264 799.941467,569.039429 798.668640,578.027771 
M156.310913,569.443848 
	C153.098236,567.643311 149.943512,564.422119 146.662827,564.288330 
	C132.542801,563.712097 118.385780,564.042114 104.076126,564.042114 
	C104.076126,576.190552 104.076126,588.104309 104.076126,599.954956 
	C106.432816,599.954956 108.539337,599.954956 110.950470,599.954956 
	C110.950470,595.883179 110.950470,592.107422 110.950470,587.865479 
	C122.204475,587.865479 133.155487,587.900574 144.106171,587.855835 
	C155.600464,587.808899 160.357254,581.089111 156.310913,569.443848 
M622.639099,578.883545 
	C623.745056,572.315125 626.273865,570.087769 633.006775,570.056763 
	C644.965210,570.001648 656.924072,570.041260 669.049316,570.041260 
	C669.049316,567.824768 669.049316,565.960999 669.049316,563.971924 
	C655.693970,563.971924 642.710815,563.795593 629.735291,564.034668 
	C621.262268,564.190796 616.161621,569.503418 615.802612,577.870972 
	C615.674316,580.861206 615.685486,583.867554 615.828979,586.857178 
	C616.162048,593.796936 620.484558,599.509216 627.329651,599.790710 
	C641.224243,600.362244 655.158752,599.961487 669.057068,599.961487 
	C669.057068,597.894592 669.057068,596.118347 669.057068,594.052307 
	C656.672852,594.052307 644.547424,594.119934 632.423401,594.024231 
	C626.228271,593.975342 623.227844,591.390442 622.572754,585.753845 
	C622.344238,583.787781 622.545044,581.771851 622.639099,578.883545 
M952.611694,972.740906 
	C960.880676,977.126160 965.779663,984.315735 969.013611,993.245544 
	C972.984741,980.719116 981.395813,973.254822 993.200256,968.839172 
	C980.766602,964.897400 973.143066,956.814758 968.962402,944.758545 
	C964.972717,957.173828 956.707336,964.785217 943.794006,968.948242 
	C947.450134,970.471619 949.713379,971.414673 952.611694,972.740906 
M684.039001,565.789856 
	C681.942871,565.011475 679.846802,564.233093 677.227783,563.260559 
	C677.227783,572.315186 676.904053,580.116272 677.325134,587.876892 
	C677.695312,594.696899 682.609863,599.624023 689.694153,599.968140 
	C699.315369,600.435547 708.989319,600.401978 718.615173,599.988892 
	C725.419312,599.696716 730.319214,595.166321 730.691711,588.835205 
	C731.167053,580.754822 730.807007,572.625244 730.807007,564.292114 
	C728.445801,564.292114 726.401978,564.292114 724.022278,564.292114 
	C724.022278,571.518188 724.117371,578.474609 723.992065,585.427124 
	C723.892517,590.953491 721.231750,593.800110 715.735779,593.946533 
	C708.089355,594.150269 700.429626,594.139221 692.782593,593.944580 
	C687.142212,593.800964 684.180542,590.709351 684.083435,585.206848 
	C683.974854,579.053589 684.052368,572.897095 684.039001,565.789856 
M500.672272,564.147400 
	C498.582184,564.147400 496.492096,564.147400 493.936554,564.147400 
	C493.936554,568.506775 494.028870,572.480713 493.917267,576.448853 
	C493.687836,584.607544 489.338531,590.992493 481.574860,593.285706 
	C478.026672,594.333801 474.019592,593.996094 470.220703,593.995483 
	C460.247894,593.993835 452.926910,586.913879 452.592896,576.987549 
	C452.449860,572.736877 452.568970,568.477417 452.568970,564.118286 
	C449.835480,564.118286 447.866913,564.118286 445.690399,564.118286 
	C445.690399,568.720703 445.690033,573.180542 445.690491,577.640381 
	C445.691376,586.311157 450.205353,592.197998 457.065887,596.941345 
	C463.236298,601.207520 470.096191,600.277710 476.847931,600.309326 
	C489.260254,600.367432 498.843262,592.173889 500.466919,579.830505 
	C501.114624,574.906433 500.881531,569.866577 500.672272,564.147400 
M603.278076,594.079407 
	C599.665405,594.079407 596.052673,594.079407 592.484985,594.079407 
	C592.484985,585.807007 592.484985,578.061768 592.484985,569.795044 
	C597.960022,569.795044 603.183655,569.795044 608.643188,569.795044 
	C608.533936,567.523682 608.450684,565.793945 608.372314,564.165161 
	C595.055725,564.165161 582.292480,564.165161 569.346436,564.165161 
	C569.346436,566.135193 569.346436,567.858826 569.346436,570.019531 
	C574.656433,570.019531 579.741333,570.019531 585.034790,570.019531 
	C585.034790,578.181091 585.034790,585.905212 585.034790,594.181091 
	C579.674744,594.181091 574.451904,594.181091 569.337097,594.181091 
	C569.337097,596.490601 569.337097,598.245850 569.337097,600.024963 
	C582.535095,600.024963 595.449341,600.024963 608.378052,600.024963 
	C608.378052,597.963257 608.378052,596.211365 608.378052,594.078125 
	C606.803589,594.078125 605.508789,594.078125 603.278076,594.079407 
M227.315201,564.685364 
	C227.315201,566.302612 227.315201,567.919861 227.315201,569.965576 
	C232.913437,569.965576 238.176849,569.965576 243.609482,569.965576 
	C243.609482,578.165405 243.609482,585.931213 243.609482,594.154907 
	C238.157135,594.154907 232.901550,594.154907 227.546021,594.154907 
	C227.546021,596.369995 227.546021,598.125000 227.546021,600.091492 
	C240.715836,600.091492 253.648804,600.091492 266.675507,600.091492 
	C266.675507,598.085449 266.675507,596.316772 266.675507,593.995483 
	C261.252045,593.995483 256.020416,593.995483 250.975479,593.995483 
	C250.975479,585.702637 250.975479,577.967163 250.975479,569.848206 
	C256.405090,569.848206 261.504028,569.848206 266.656494,569.848206 
	C266.656494,567.716858 266.656494,565.992371 266.656494,564.079041 
	C253.579010,564.079041 240.789581,564.079041 227.315201,564.685364 
M746.096008,565.250549 
	C743.974182,564.717102 741.852417,564.183655 739.282104,563.537476 
	C739.282104,572.387756 738.931763,580.210022 739.381348,587.986023 
	C739.824036,595.641479 744.640076,599.944031 752.543213,600.184509 
	C761.033203,600.442810 769.536072,600.281738 778.033325,600.296692 
	C782.612915,600.304688 787.192505,600.298035 792.032166,600.298035 
	C791.901611,597.801880 791.810608,596.061584 791.704102,594.025879 
	C779.175354,594.025879 767.033569,594.091492 754.892883,593.998779 
	C748.619263,593.950928 746.196045,591.420410 746.136902,585.133911 
	C746.077393,578.802979 746.137878,572.471008 746.096008,565.250549 
M596.867981,551.031677 
	C589.721130,549.854492 586.448669,554.683289 582.771484,559.573792 
	C590.739197,561.473511 594.256165,555.717773 598.709717,551.762146 
	C598.361572,551.517578 598.013428,551.273010 596.867981,551.031677 
z"/>
<path fill="#D21016" opacity="1.000000" stroke="none" 
	d="
M446.518250,509.697327 
	C484.216644,513.348755 521.426636,512.976624 558.695374,509.574066 
	C594.942078,506.264771 630.563354,499.687256 665.820618,490.902252 
	C674.213684,488.810913 682.494873,486.272461 690.839050,483.981354 
	C692.567627,483.506714 694.347046,483.217102 696.617432,483.850586 
	C694.946411,484.876740 693.356934,486.077240 691.592163,486.903107 
	C659.029541,502.141602 625.070740,513.281677 589.939270,520.723938 
	C551.516479,528.863403 512.628296,532.614136 473.331207,531.706665 
	C438.273804,530.897095 403.621185,526.476196 369.294678,519.520203 
	C351.195923,515.852600 333.327423,510.962555 315.153564,507.771362 
	C285.111450,502.496216 255.079102,504.533813 225.239059,510.147552 
	C193.866318,516.049683 163.813889,526.250916 134.389709,538.470398 
	C134.139038,538.094177 133.888382,537.717896 133.637711,537.341614 
	C141.573212,531.584961 149.307556,525.523743 157.480194,520.126099 
	C187.641708,500.206024 220.680084,487.329224 256.319061,481.576843 
	C287.770813,476.500275 318.672333,476.999481 349.222534,488.768280 
	C380.253143,500.722198 412.966370,506.460724 446.518250,509.697327 
z"/>
<path fill="#D21016" opacity="1.000000" stroke="none" 
	d="
M846.807617,461.811707 
	C864.331970,464.276306 881.112366,462.742554 897.655457,458.046753 
	C904.172424,456.196899 904.116333,456.255768 906.775696,462.535492 
	C920.274719,494.411224 913.650635,523.727173 895.539612,551.601440 
	C895.181824,552.152039 894.762878,552.677124 894.295593,553.135742 
	C894.090088,553.337524 893.691467,553.342651 893.288635,553.465027 
	C892.777222,545.852234 892.574219,538.231812 891.649231,530.699951 
	C891.046265,525.790771 889.764954,520.882141 888.144165,516.195862 
	C882.765442,500.644470 870.826782,494.139160 855.189331,493.310394 
	C849.372620,493.002136 843.515015,493.027405 837.694946,493.301697 
	C817.004761,494.276764 797.910645,488.734192 779.415039,479.965729 
	C757.619080,469.632660 735.880493,459.104614 713.639465,449.802979 
	C684.652405,437.680054 654.328064,429.853455 623.058472,426.498108 
	C606.536438,424.725281 589.855469,423.608215 573.249084,423.640198 
	C548.437073,423.687958 523.771240,426.342407 499.290955,430.658417 
	C458.375061,437.872101 418.464478,448.731232 379.469666,463.018127 
	C375.571716,464.446228 371.687683,465.912231 367.176727,466.392181 
	C372.365723,462.925507 377.461823,459.309357 382.758942,456.016632 
	C414.986481,435.983917 448.909210,419.547546 485.166412,408.128998 
	C512.233887,399.604645 539.840271,393.797028 568.179443,391.598480 
	C601.783020,388.991516 634.992981,391.462494 667.957336,398.440430 
	C698.827637,404.975098 728.658752,414.665192 757.473022,427.404022 
	C776.319885,435.736237 794.605469,445.386627 813.660400,453.180359 
	C824.001709,457.410126 835.427002,458.989777 846.807617,461.811707 
M540.904968,396.198761 
	C539.942505,396.453674 538.993530,396.789673 538.015686,396.951630 
	C516.887085,400.451508 496.171356,405.666687 475.939362,412.628113 
	C449.324738,421.785614 423.881409,433.591583 399.558716,447.766998 
	C393.655548,451.207336 387.915649,454.927826 382.100677,458.519501 
	C382.343292,459.028412 382.585876,459.537323 382.828491,460.046234 
	C386.577240,458.693817 390.275970,457.177155 394.083618,456.018158 
	C408.654724,451.582794 423.186096,446.988739 437.875061,442.976562 
	C452.409760,439.006561 467.017944,435.178955 481.776978,432.194275 
	C495.379669,429.443420 509.187347,427.580688 522.975037,425.905548 
	C536.766357,424.229950 550.621704,422.670166 564.490417,422.136902 
	C586.405029,421.294281 608.233643,422.666351 630.012146,425.809631 
	C651.265747,428.877106 672.059998,433.660217 692.388306,440.348083 
	C723.891357,450.712372 753.544983,465.402283 783.213562,480.040192 
	C799.196777,487.925964 816.200134,491.975769 834.089722,491.996033 
	C842.255310,492.005280 850.470703,491.430389 858.574219,492.139923 
	C869.151550,493.066101 878.649353,497.053497 884.784302,506.328522 
	C890.871155,515.530823 893.586731,525.914124 893.982422,536.897217 
	C894.109741,540.432068 894.002441,543.975281 894.002441,547.514709 
	C894.621094,547.678528 895.239746,547.842346 895.858398,548.006226 
	C897.578247,545.160522 899.441101,542.390625 900.995483,539.457336 
	C913.917603,515.072144 915.967529,489.970367 905.909973,464.060150 
	C904.495789,460.416870 903.127502,458.394531 898.294434,459.581848 
	C884.333069,463.011688 870.310242,465.309021 855.636230,464.238953 
	C836.931091,462.874908 819.404419,458.101959 802.567566,450.257141 
	C786.759094,442.891479 771.184082,435.001160 755.208740,428.022827 
	C730.709167,417.320953 705.468567,408.618408 679.356079,402.715942 
	C667.910217,400.128723 656.365417,397.867859 644.768250,396.095215 
	C634.638000,394.546814 624.392334,393.519348 614.159302,392.939209 
	C602.557739,392.281525 590.885559,391.772888 579.295471,392.310089 
	C566.756592,392.891296 554.277161,394.754578 540.904968,396.198761 
z"/>
<path fill="#F4F5F5" opacity="1.000000" stroke="none" 
	d="
M330.116760,569.984985 
	C319.149139,570.048462 317.443939,571.719910 317.396362,582.091797 
	C317.369690,587.909119 317.391571,593.726685 317.391571,599.905823 
	C314.978699,599.905823 312.772675,599.905823 310.309448,599.905823 
	C310.309448,592.703796 310.388947,585.731140 310.285309,578.761169 
	C310.195984,572.754395 307.840698,570.334351 301.813019,570.076172 
	C297.824432,569.905334 293.816437,569.920776 289.827423,570.092224 
	C284.386932,570.325928 281.943604,572.751160 281.833679,578.181396 
	C281.688904,585.333313 281.798065,592.490356 281.798065,599.962036 
	C279.557800,599.962036 277.449524,599.962036 275.079132,599.962036 
	C275.079132,591.517212 274.686951,582.904358 275.223114,574.349670 
	C275.555969,569.038635 279.418884,565.214539 284.591583,564.688232 
	C291.978424,563.936707 299.501709,564.076782 306.933014,564.471008 
	C309.319366,564.597534 311.599121,566.733032 314.272064,568.129333 
	C322.730591,561.073059 333.093079,563.589661 342.963593,564.552551 
	C348.993378,565.140625 352.827118,570.098328 353.050415,575.937134 
	C353.354309,583.883423 353.126160,591.850037 353.126160,600.043396 
	C350.801453,600.043396 348.714294,600.043396 346.211212,600.043396 
	C346.211212,593.461548 346.232544,587.028809 346.205933,580.596191 
	C346.170898,572.117371 344.101257,570.068542 335.576263,569.996277 
	C333.911163,569.982178 332.245880,569.988037 330.116760,569.984985 
z"/>
<path fill="#F5F7F6" opacity="1.000000" stroke="none" 
	d="
M368.452759,587.479858 
	C369.705017,592.686646 373.132660,594.086060 377.550537,594.082031 
	C389.673340,594.070923 401.796173,594.078186 414.218750,594.078186 
	C414.218750,596.201355 414.218750,597.961487 414.218750,599.988770 
	C400.445099,599.988770 386.664612,600.298950 372.908997,599.849121 
	C366.654877,599.644653 362.329376,594.759827 361.661835,588.400024 
	C361.230408,584.289856 361.211884,580.068542 361.606628,575.954468 
	C362.307343,568.651733 366.653564,564.278381 373.997406,564.106079 
	C387.287628,563.794312 400.590454,564.017761 414.178345,564.017761 
	C414.178345,565.980225 414.178345,567.727173 414.178345,570.009399 
	C401.769073,570.009399 389.505798,569.948303 377.243530,570.035522 
	C371.207520,570.078430 369.079803,572.287170 368.672791,578.801758 
	C382.930634,578.801758 397.172180,578.801758 411.722137,578.801758 
	C411.722137,580.929443 411.722137,582.638245 411.722137,584.931885 
	C399.369751,584.931885 387.092621,584.930603 374.815491,584.933350 
	C373.150452,584.933716 371.453552,584.773987 369.836975,585.059448 
	C369.241730,585.164612 368.835999,586.342651 368.452759,587.479858 
z"/>
<path fill="#F5F7F6" opacity="1.000000" stroke="none" 
	d="
M558.991821,579.482422 
	C559.232605,581.313293 559.232605,582.790283 559.232605,584.726562 
	C544.772034,584.726562 530.538879,584.726562 516.358398,584.726562 
	C515.690308,591.290039 517.983704,593.993652 524.324280,594.070801 
	C534.818420,594.198547 545.315125,594.110168 555.810791,594.112793 
	C557.623657,594.113220 559.436462,594.112915 561.679077,594.112915 
	C561.786926,596.107483 561.880554,597.839905 562.011780,600.266418 
	C553.977661,600.266418 546.229370,600.278564 538.481079,600.262390 
	C532.983887,600.250916 527.477051,600.397217 521.992065,600.122314 
	C513.816956,599.712646 509.161346,594.921570 508.824188,586.802490 
	C508.679230,583.312805 508.646942,579.796021 508.904449,576.316772 
	C509.415833,569.407471 513.726318,564.422974 520.564880,564.217224 
	C534.171753,563.807678 547.799622,564.096069 561.648560,564.096069 
	C561.648560,566.026550 561.648560,567.637024 561.648560,569.999390 
	C557.816895,569.999390 553.892761,569.999451 549.968689,569.999451 
	C541.305603,569.999451 532.641541,569.922302 523.979675,570.026733 
	C518.289734,570.095337 516.155640,572.452332 515.993958,579.128540 
	C530.253418,579.128540 544.502197,579.128540 558.991821,579.482422 
z"/>
<path fill="#F5F6F6" opacity="1.000000" stroke="none" 
	d="
M900.971680,569.995361 
	C891.980164,569.981567 883.482239,570.011292 874.985413,569.931396 
	C871.717102,569.900696 868.538513,570.353943 868.413757,574.281311 
	C868.274475,578.667480 871.790955,578.967041 875.128113,578.973755 
	C884.625183,578.992981 894.125732,578.848633 903.618286,579.062134 
	C911.030090,579.228760 915.041870,583.040100 915.157349,589.402161 
	C915.273438,595.793335 911.920776,599.866272 905.228638,600.010620 
	C891.088257,600.315735 876.936707,600.103577 862.489258,600.103577 
	C862.489258,598.271912 862.489258,596.526672 862.489258,594.071533 
	C864.149902,594.071533 865.913391,594.070618 867.676880,594.071655 
	C879.173462,594.078552 890.670105,594.075378 902.166687,594.099854 
	C905.256470,594.106384 908.011292,593.608154 908.104004,589.730286 
	C908.203918,585.550842 905.272888,584.957275 902.009949,584.949707 
	C892.346252,584.927307 882.677734,585.107544 873.020264,584.855408 
	C864.119446,584.622986 859.643616,578.914734 861.858093,571.194275 
	C863.121582,566.789368 866.884216,564.060120 872.648010,564.001221 
	C885.637939,563.868591 898.630127,563.959534 912.006592,563.959534 
	C912.006592,565.950256 912.006592,567.806152 912.006592,569.995117 
	C908.407654,569.995117 904.936768,569.995117 900.971680,569.995361 
z"/>
<path fill="#F3F4F4" opacity="1.000000" stroke="none" 
	d="
M187.999115,587.229004 
	C182.843872,587.229187 178.188934,587.229187 173.073395,587.229187 
	C173.073395,591.472107 173.073395,595.528625 173.073395,599.908813 
	C170.518829,599.908813 168.421127,599.908813 165.998093,599.908813 
	C165.998093,588.128235 165.998093,576.230103 165.998093,564.030884 
	C180.327393,564.030884 194.607178,563.857117 208.878479,564.129578 
	C213.570236,564.219238 217.574600,566.435120 219.149323,571.418457 
	C220.775116,576.563293 219.660980,580.922424 214.893494,584.445312 
	C220.650482,588.238037 219.515121,594.060730 219.600266,599.910767 
	C217.244308,599.910767 215.016113,599.910767 212.901108,599.910767 
	C212.705780,599.585083 212.565628,599.456970 212.555389,599.319214 
	C211.655731,587.221924 211.656418,587.222168 199.480347,587.227539 
	C195.820038,587.229126 192.159729,587.228455 187.999115,587.229004 
M172.588669,575.520935 
	C172.588669,577.282227 172.588669,579.043518 172.588669,581.083069 
	C184.467316,581.083069 195.768021,581.126526 207.068039,581.057068 
	C210.557968,581.035645 213.271133,579.162964 212.675323,575.631958 
	C212.331589,573.594727 209.793869,570.417603 208.142578,570.353394 
	C196.381927,569.896179 184.595200,570.109619 172.585648,570.109619 
	C172.585648,571.891907 172.585648,573.212646 172.588669,575.520935 
z"/>
<path fill="#F7F8F7" opacity="1.000000" stroke="none" 
	d="
M798.699219,577.599731 
	C799.941467,569.039429 804.826660,564.270264 812.973389,564.014648 
	C821.770630,563.738586 830.591003,563.712158 839.386841,564.007568 
	C848.817993,564.324341 853.925049,569.807190 854.236023,579.225525 
	C854.785828,595.873413 850.540466,600.260742 833.826050,600.308533 
	C827.844299,600.325684 821.861816,600.394409 815.880859,600.330933 
	C803.661011,600.201233 798.645020,595.143860 798.601685,583.011536 
	C798.595764,581.350342 798.644958,579.689026 798.699219,577.599731 
M814.101685,570.051453 
	C806.670349,571.734619 804.668274,575.153198 805.494080,584.748657 
	C806.026733,590.937805 808.892273,593.874634 815.004761,593.992371 
	C822.663940,594.140015 830.330200,594.143921 837.989319,593.997009 
	C843.765930,593.886230 846.833191,590.766785 847.196167,585.031067 
	C847.301086,583.372498 847.279236,581.699341 847.207825,580.037476 
	C846.906860,573.033264 843.989807,570.106995 836.978394,570.021301 
	C829.650696,569.931702 822.320801,570.019470 814.101685,570.051453 
z"/>
<path fill="#F5F7F6" opacity="1.000000" stroke="none" 
	d="
M156.533737,569.763977 
	C160.357254,581.089111 155.600464,587.808899 144.106171,587.855835 
	C133.155487,587.900574 122.204475,587.865479 110.950470,587.865479 
	C110.950470,592.107422 110.950470,595.883179 110.950470,599.954956 
	C108.539337,599.954956 106.432816,599.954956 104.076126,599.954956 
	C104.076126,588.104309 104.076126,576.190552 104.076126,564.042114 
	C118.385780,564.042114 132.542801,563.712097 146.662827,564.288330 
	C149.943512,564.422119 153.098236,567.643311 156.533737,569.763977 
M112.665154,569.990662 
	C112.047668,570.554688 110.928299,571.091553 110.896172,571.687195 
	C110.720757,574.939148 110.812691,578.205444 110.812691,581.824036 
	C122.123055,581.824036 132.869781,581.860901 143.615997,581.804871 
	C147.614777,581.784058 151.056366,580.717285 151.008026,575.787048 
	C150.959427,570.829773 147.541229,569.994507 143.493271,570.004395 
	C133.541443,570.028748 123.589455,569.993835 112.665154,569.990662 
z"/>
<path fill="#F7F8F7" opacity="1.000000" stroke="none" 
	d="
M622.594482,579.331116 
	C622.545044,581.771851 622.344238,583.787781 622.572754,585.753845 
	C623.227844,591.390442 626.228271,593.975342 632.423401,594.024231 
	C644.547424,594.119934 656.672852,594.052307 669.057068,594.052307 
	C669.057068,596.118347 669.057068,597.894592 669.057068,599.961487 
	C655.158752,599.961487 641.224243,600.362244 627.329651,599.790710 
	C620.484558,599.509216 616.162048,593.796936 615.828979,586.857178 
	C615.685486,583.867554 615.674316,580.861206 615.802612,577.870972 
	C616.161621,569.503418 621.262268,564.190796 629.735291,564.034668 
	C642.710815,563.795593 655.693970,563.971924 669.049316,563.971924 
	C669.049316,565.960999 669.049316,567.824768 669.049316,570.041260 
	C656.924072,570.041260 644.965210,570.001648 633.006775,570.056763 
	C626.273865,570.087769 623.745056,572.315125 622.594482,579.331116 
z"/>
<path fill="#7F7F80" opacity="1.000000" stroke="none" 
	d="
M952.294189,972.549316 
	C949.713379,971.414673 947.450134,970.471619 943.794006,968.948242 
	C956.707336,964.785217 964.972717,957.173828 968.962402,944.758545 
	C973.143066,956.814758 980.766602,964.897400 993.200256,968.839172 
	C981.395813,973.254822 972.984741,980.719116 969.013611,993.245544 
	C965.779663,984.315735 960.880676,977.126160 952.294189,972.549316 
z"/>
<path fill="#F5F6F6" opacity="1.000000" stroke="none" 
	d="
M684.043945,566.265930 
	C684.052368,572.897095 683.974854,579.053589 684.083435,585.206848 
	C684.180542,590.709351 687.142212,593.800964 692.782593,593.944580 
	C700.429626,594.139221 708.089355,594.150269 715.735779,593.946533 
	C721.231750,593.800110 723.892517,590.953491 723.992065,585.427124 
	C724.117371,578.474609 724.022278,571.518188 724.022278,564.292114 
	C726.401978,564.292114 728.445801,564.292114 730.807007,564.292114 
	C730.807007,572.625244 731.167053,580.754822 730.691711,588.835205 
	C730.319214,595.166321 725.419312,599.696716 718.615173,599.988892 
	C708.989319,600.401978 699.315369,600.435547 689.694153,599.968140 
	C682.609863,599.624023 677.695312,594.696899 677.325134,587.876892 
	C676.904053,580.116272 677.227783,572.315186 677.227783,563.260559 
	C679.846802,564.233093 681.942871,565.011475 684.043945,566.265930 
z"/>
<path fill="#F5F6F6" opacity="1.000000" stroke="none" 
	d="
M500.860840,564.513428 
	C500.881531,569.866577 501.114624,574.906433 500.466919,579.830505 
	C498.843262,592.173889 489.260254,600.367432 476.847931,600.309326 
	C470.096191,600.277710 463.236298,601.207520 457.065887,596.941345 
	C450.205353,592.197998 445.691376,586.311157 445.690491,577.640381 
	C445.690033,573.180542 445.690399,568.720703 445.690399,564.118286 
	C447.866913,564.118286 449.835480,564.118286 452.568970,564.118286 
	C452.568970,568.477417 452.449860,572.736877 452.592896,576.987549 
	C452.926910,586.913879 460.247894,593.993835 470.220703,593.995483 
	C474.019592,593.996094 478.026672,594.333801 481.574860,593.285706 
	C489.338531,590.992493 493.687836,584.607544 493.917267,576.448853 
	C494.028870,572.480713 493.936554,568.506775 493.936554,564.147400 
	C496.492096,564.147400 498.582184,564.147400 500.860840,564.513428 
z"/>
<path fill="#F4F5F5" opacity="1.000000" stroke="none" 
	d="
M603.746033,594.078735 
	C605.508789,594.078125 606.803589,594.078125 608.378052,594.078125 
	C608.378052,596.211365 608.378052,597.963257 608.378052,600.024963 
	C595.449341,600.024963 582.535095,600.024963 569.337097,600.024963 
	C569.337097,598.245850 569.337097,596.490601 569.337097,594.181091 
	C574.451904,594.181091 579.674744,594.181091 585.034790,594.181091 
	C585.034790,585.905212 585.034790,578.181091 585.034790,570.019531 
	C579.741333,570.019531 574.656433,570.019531 569.346436,570.019531 
	C569.346436,567.858826 569.346436,566.135193 569.346436,564.165161 
	C582.292480,564.165161 595.055725,564.165161 608.372314,564.165161 
	C608.450684,565.793945 608.533936,567.523682 608.643188,569.795044 
	C603.183655,569.795044 597.960022,569.795044 592.484985,569.795044 
	C592.484985,578.061768 592.484985,585.807007 592.484985,594.079407 
	C596.052673,594.079407 599.665405,594.079407 603.746033,594.078735 
z"/>
<path fill="#F3F4F4" opacity="1.000000" stroke="none" 
	d="
M227.657684,564.382202 
	C240.789581,564.079041 253.579010,564.079041 266.656494,564.079041 
	C266.656494,565.992371 266.656494,567.716858 266.656494,569.848206 
	C261.504028,569.848206 256.405090,569.848206 250.975479,569.848206 
	C250.975479,577.967163 250.975479,585.702637 250.975479,593.995483 
	C256.020416,593.995483 261.252045,593.995483 266.675507,593.995483 
	C266.675507,596.316772 266.675507,598.085449 266.675507,600.091492 
	C253.648804,600.091492 240.715836,600.091492 227.546021,600.091492 
	C227.546021,598.125000 227.546021,596.369995 227.546021,594.154907 
	C232.901550,594.154907 238.157135,594.154907 243.609482,594.154907 
	C243.609482,585.931213 243.609482,578.165405 243.609482,569.965576 
	C238.176849,569.965576 232.913437,569.965576 227.315201,569.965576 
	C227.315201,567.919861 227.315201,566.302612 227.657684,564.382202 
z"/>
<path fill="#F5F6F6" opacity="1.000000" stroke="none" 
	d="
M746.120850,565.695007 
	C746.137878,572.471008 746.077393,578.802979 746.136902,585.133911 
	C746.196045,591.420410 748.619263,593.950928 754.892883,593.998779 
	C767.033569,594.091492 779.175354,594.025879 791.704102,594.025879 
	C791.810608,596.061584 791.901611,597.801880 792.032166,600.298035 
	C787.192505,600.298035 782.612915,600.304688 778.033325,600.296692 
	C769.536072,600.281738 761.033203,600.442810 752.543213,600.184509 
	C744.640076,599.944031 739.824036,595.641479 739.381348,587.986023 
	C738.931763,580.210022 739.282104,572.387756 739.282104,563.537476 
	C741.852417,564.183655 743.974182,564.717102 746.120850,565.695007 
z"/>
<path fill="#F3F4F4" opacity="1.000000" stroke="none" 
	d="
M597.266602,551.030029 
	C598.013428,551.273010 598.361572,551.517578 598.709717,551.762146 
	C594.256165,555.717773 590.739197,561.473511 582.771484,559.573792 
	C586.448669,554.683289 589.721130,549.854492 597.266602,551.030029 
z"/>
<path fill="#D50F15" opacity="1.000000" stroke="none" 
	d="
M541.338379,396.128723 
	C554.277161,394.754578 566.756592,392.891296 579.295471,392.310089 
	C590.885559,391.772888 602.557739,392.281525 614.159302,392.939209 
	C624.392334,393.519348 634.638000,394.546814 644.768250,396.095215 
	C656.365417,397.867859 667.910217,400.128723 679.356079,402.715942 
	C705.468567,408.618408 730.709167,417.320953 755.208740,428.022827 
	C771.184082,435.001160 786.759094,442.891479 802.567566,450.257141 
	C819.404419,458.101959 836.931091,462.874908 855.636230,464.238953 
	C870.310242,465.309021 884.333069,463.011688 898.294434,459.581848 
	C903.127502,458.394531 904.495789,460.416870 905.909973,464.060150 
	C915.967529,489.970367 913.917603,515.072144 900.995483,539.457336 
	C899.441101,542.390625 897.578247,545.160522 895.858398,548.006226 
	C895.239746,547.842346 894.621094,547.678528 894.002441,547.514709 
	C894.002441,543.975281 894.109741,540.432068 893.982422,536.897217 
	C893.586731,525.914124 890.871155,515.530823 884.784302,506.328522 
	C878.649353,497.053497 869.151550,493.066101 858.574219,492.139923 
	C850.470703,491.430389 842.255310,492.005280 834.089722,491.996033 
	C816.200134,491.975769 799.196777,487.925964 783.213562,480.040192 
	C753.544983,465.402283 723.891357,450.712372 692.388306,440.348083 
	C672.059998,433.660217 651.265747,428.877106 630.012146,425.809631 
	C608.233643,422.666351 586.405029,421.294281 564.490417,422.136902 
	C550.621704,422.670166 536.766357,424.229950 522.975037,425.905548 
	C509.187347,427.580688 495.379669,429.443420 481.776978,432.194275 
	C467.017944,435.178955 452.409760,439.006561 437.875061,442.976562 
	C423.186096,446.988739 408.654724,451.582794 394.083618,456.018158 
	C390.275970,457.177155 386.577240,458.693817 382.828491,460.046234 
	C382.585876,459.537323 382.343292,459.028412 382.100677,458.519501 
	C387.915649,454.927826 393.655548,451.207336 399.558716,447.766998 
	C423.881409,433.591583 449.324738,421.785614 475.939362,412.628113 
	C496.171356,405.666687 516.887085,400.451508 538.015686,396.951630 
	C538.993530,396.789673 539.942505,396.453674 541.338379,396.128723 
z"/>
<path fill="#07090A" opacity="1.000000" stroke="none" 
	d="
M172.587158,575.027161 
	C172.585648,573.212646 172.585648,571.891907 172.585648,570.109619 
	C184.595200,570.109619 196.381927,569.896179 208.142578,570.353394 
	C209.793869,570.417603 212.331589,573.594727 212.675323,575.631958 
	C213.271133,579.162964 210.557968,581.035645 207.068039,581.057068 
	C195.768021,581.126526 184.467316,581.083069 172.588669,581.083069 
	C172.588669,579.043518 172.588669,577.282227 172.587158,575.027161 
z"/>
<path fill="#07090A" opacity="1.000000" stroke="none" 
	d="
M814.546753,570.040527 
	C822.320801,570.019470 829.650696,569.931702 836.978394,570.021301 
	C843.989807,570.106995 846.906860,573.033264 847.207825,580.037476 
	C847.279236,581.699341 847.301086,583.372498 847.196167,585.031067 
	C846.833191,590.766785 843.765930,593.886230 837.989319,593.997009 
	C830.330200,594.143921 822.663940,594.140015 815.004761,593.992371 
	C808.892273,593.874634 806.026733,590.937805 805.494080,584.748657 
	C804.668274,575.153198 806.670349,571.734619 814.546753,570.040527 
z"/>
<path fill="#0B0D0E" opacity="1.000000" stroke="none" 
	d="
M113.151337,569.986694 
	C123.589455,569.993835 133.541443,570.028748 143.493271,570.004395 
	C147.541229,569.994507 150.959427,570.829773 151.008026,575.787048 
	C151.056366,580.717285 147.614777,581.784058 143.615997,581.804871 
	C132.869781,581.860901 122.123055,581.824036 110.812691,581.824036 
	C110.812691,578.205444 110.720757,574.939148 110.896172,571.687195 
	C110.928299,571.091553 112.047668,570.554688 113.151337,569.986694 
z"/>
</svg>